<?xml version="1.0" standalone="no"?>
<!DOCTYPE svg PUBLIC "-//W3C//DTD SVG 20010904//EN"
 "http://www.w3.org/TR/2001/REC-SVG-20010904/DTD/svg10.dtd">
<svg version="1.0" xmlns="http://www.w3.org/2000/svg"
 width="319.000000pt" height="350.000000pt" viewBox="0 0 319.000000 350.000000"
 preserveAspectRatio="xMidYMid meet">

<g transform="translate(0.000000,350.000000) scale(0.100000,-0.100000)"
fill="#ec2180" stroke="none">
<path d="M2265 3226 c-38 -13 -105 -37 -148 -55 -85 -34 -133 -39 -177 -16
-15 8 -53 18 -84 21 -50 6 -63 3 -118 -24 -76 -37 -189 -129 -223 -180 -37
-57 -55 -142 -55 -267 1 -211 27 -320 82 -338 39 -12 106 9 144 47 46 46 60
104 45 186 -23 129 -23 129 6 70 21 -41 28 -74 31 -130 4 -71 2 -77 -30 -125
-23 -34 -49 -57 -83 -75 -49 -24 -51 -27 -67 -92 -31 -125 -85 -182 -290 -303
-163 -96 -251 -159 -311 -223 -52 -57 -95 -136 -105 -196 -9 -51 -28 -53 -59
-7 -44 65 -28 170 41 273 41 60 45 78 17 78 -36 0 -103 -63 -140 -130 -34 -61
-36 -71 -36 -155 0 -73 4 -98 23 -136 27 -56 78 -110 123 -132 27 -12 38 -27
53 -69 57 -161 225 -271 372 -243 l36 6 -5 52 c-2 28 -10 53 -16 55 -36 12
-139 92 -164 127 -53 76 -53 208 0 314 41 82 176 186 224 174 29 -8 19 -24
-37 -59 -110 -71 -150 -120 -175 -219 -24 -94 27 -212 110 -255 52 -26 56 -26
71 10 20 48 61 75 154 99 129 34 226 109 242 187 5 29 2 33 -40 58 -116 68
-136 185 -58 341 46 95 68 101 111 32 20 -32 25 -34 93 -40 69 -6 73 -5 105
23 19 17 40 30 47 30 20 0 55 -77 68 -149 24 -130 -37 -244 -145 -272 -58 -14
-62 -27 -54 -148 8 -105 35 -215 76 -304 l30 -67 191 0 191 0 -7 37 c-9 49
-30 91 -64 128 l-28 30 19 135 c10 74 18 171 18 215 2 189 -44 413 -131 639
-76 198 -98 272 -98 327 0 98 49 156 201 234 48 25 98 58 112 75 34 39 47 109
47 238 0 84 -5 116 -20 150 -10 23 -25 42 -32 42 -7 -1 -44 -11 -83 -24z"/>
<path d="M1210 875 c0 -68 2 -75 20 -75 18 0 20 7 20 75 0 68 -2 75 -20 75
-18 0 -20 -7 -20 -75z"/>
<path d="M2467 943 c-4 -3 -7 -79 -7 -167 0 -202 4 -210 83 -214 45 -2 57 0
57 12 0 9 -11 16 -27 18 l-28 3 -3 178 -2 177 -34 0 c-18 0 -36 -3 -39 -7z"/>
<path d="M1775 916 c-43 -19 -66 -49 -72 -93 -6 -48 18 -81 87 -120 63 -35 80
-65 55 -93 -24 -27 -51 -25 -81 5 -21 21 -29 23 -45 14 -26 -13 -20 -29 21
-56 59 -40 156 -26 194 29 19 27 20 96 2 120 -7 10 -39 32 -71 50 -32 18 -63
41 -69 51 -29 46 56 78 91 34 16 -21 21 -23 37 -12 24 18 8 47 -38 69 -41 19
-71 20 -111 2z"/>
<path d="M430 740 l0 -180 50 0 50 0 0 70 0 70 38 0 c125 0 187 78 132 167
-24 40 -67 53 -182 53 l-88 0 0 -180z m153 129 c30 -16 37 -28 37 -65 0 -39
-16 -54 -57 -54 l-33 0 0 65 c0 70 8 78 53 54z"/>
<path d="M790 793 c-8 -3 -18 -11 -22 -17 -13 -19 -9 -191 4 -204 7 -7 42 -12
85 -12 58 0 73 3 73 15 0 11 -12 15 -45 15 -45 0 -45 0 -45 35 0 33 2 35 35
35 24 0 35 5 35 15 0 10 -11 15 -35 15 -33 0 -35 2 -35 35 0 34 1 35 40 35 33
0 40 3 40 20 0 18 -6 20 -57 19 -32 0 -65 -3 -73 -6z"/>
<path d="M960 780 c0 -16 7 -20 35 -20 l35 0 0 -100 0 -100 40 0 40 0 0 100 0
100 30 0 c23 0 30 4 30 20 0 19 -7 20 -105 20 -98 0 -105 -1 -105 -20z"/>
<path d="M1351 791 c-36 -10 -65 -54 -57 -86 5 -20 20 -32 62 -51 41 -18 55
-29 52 -42 -2 -13 -15 -18 -56 -20 -37 -2 -52 -7 -52 -18 0 -24 125 -19 150 6
48 48 33 101 -36 131 -57 26 -59 49 -4 49 33 0 40 3 40 20 0 17 -6 20 -37 19
-21 -1 -49 -4 -62 -8z"/>
<path d="M1987 793 c-18 -17 -5 -33 28 -33 l35 0 0 -100 0 -100 40 0 40 0 0
100 0 100 30 0 c23 0 30 4 30 20 0 19 -7 20 -98 20 -54 0 -102 -3 -105 -7z"/>
<path d="M2200 796 c0 -1 21 -47 46 -102 l46 -98 -31 -74 c-29 -70 -29 -73 -9
-70 16 2 36 38 94 173 41 93 74 170 74 172 0 2 -8 3 -18 3 -14 0 -26 -17 -43
-60 l-24 -61 -27 61 c-27 59 -28 60 -68 60 -22 0 -40 -2 -40 -4z"/>
<path d="M2646 784 c-20 -19 -23 -193 -4 -212 7 -7 42 -12 85 -12 58 0 73 3
73 15 0 11 -12 15 -45 15 -45 0 -45 0 -45 35 0 33 2 35 35 35 24 0 35 5 35 15
0 10 -11 15 -35 15 -33 0 -35 2 -35 35 0 34 1 35 40 35 33 0 40 3 40 20 0 18
-7 20 -64 20 -45 0 -69 -5 -80 -16z"/>
<path d="M664 376 c-8 -22 0 -126 11 -129 6 -1 11 25 13 61 3 62 3 62 33 62
18 0 28 4 24 10 -9 15 -75 12 -81 -4z"/>
<path d="M770 291 c0 -61 4 -101 10 -101 6 0 10 17 10 37 0 29 3 34 12 25 32
-32 88 6 88 61 0 18 -7 43 -16 55 -16 23 -58 30 -69 12 -5 -8 -11 -7 -21 1
-12 10 -14 -4 -14 -90z m92 54 c23 -51 -20 -106 -57 -75 -18 15 -20 71 -3 88
20 20 48 14 60 -13z"/>
<path d="M910 382 c0 -5 11 -37 25 -71 26 -63 26 -101 -1 -101 -15 0 -19 -16
-5 -24 17 -11 40 22 70 102 35 92 36 137 2 59 -11 -27 -21 -54 -21 -60 0 -20
-17 7 -35 56 -15 41 -35 63 -35 39z"/>
<path d="M1060 316 c0 -44 4 -76 10 -76 6 0 10 28 11 63 l0 62 22 -63 c11 -34
25 -61 31 -59 5 2 15 21 23 42 22 63 33 65 33 7 0 -29 5 -52 10 -52 6 0 10 32
10 76 0 65 -2 75 -16 72 -10 -2 -26 -26 -37 -56 -11 -29 -23 -50 -26 -47 -3 4
-13 27 -22 53 -9 27 -23 48 -32 50 -15 3 -17 -7 -17 -72z"/>
<path d="M1250 315 c0 -91 13 -97 55 -25 16 28 33 50 37 50 4 0 8 -22 8 -50 0
-27 5 -50 10 -50 6 0 10 32 10 75 0 43 -4 75 -10 75 -5 0 -27 -26 -47 -57
l-38 -57 -3 57 c-4 84 -22 69 -22 -18z"/>
<path d="M1410 315 c0 -43 4 -75 10 -75 6 0 10 16 10 35 0 33 2 35 35 35 32 0
35 -2 35 -29 0 -17 5 -33 10 -36 6 -4 10 22 10 70 0 48 -4 74 -10 70 -5 -3
-10 -17 -10 -31 0 -21 -5 -24 -35 -24 -32 0 -35 2 -35 30 0 17 -4 30 -10 30
-6 0 -10 -32 -10 -75z"/>
<path d="M1564 376 c-8 -22 0 -126 11 -129 6 -1 11 25 13 61 3 62 3 62 33 62
18 0 28 4 24 10 -9 15 -75 12 -81 -4z"/>
<path d="M1771 364 c-12 -15 -21 -37 -21 -49 0 -30 37 -75 61 -75 29 0 59 18
59 35 0 20 -16 19 -24 -1 -4 -10 -15 -14 -33 -12 -26 3 -28 6 -28 53 0 47 2
50 28 53 18 2 29 -2 33 -12 8 -20 24 -21 24 -1 0 17 -30 35 -59 35 -11 0 -29
-12 -40 -26z"/>
<path d="M1914 376 c-10 -8 -16 -18 -12 -22 4 -4 14 -1 22 5 20 17 60 10 64
-11 2 -12 -7 -18 -37 -23 -44 -7 -64 -25 -59 -51 5 -30 34 -40 70 -26 21 8 34
9 36 2 2 -5 8 -10 12 -10 13 0 -1 133 -14 142 -18 12 -61 9 -82 -6z m76 -85
c0 -20 -18 -31 -51 -31 -22 0 -27 35 -6 43 30 13 57 7 57 -12z"/>
<path d="M2070 325 c0 -51 -3 -65 -15 -65 -8 0 -15 -4 -15 -10 0 -11 11 -13
34 -4 12 5 16 21 16 65 l0 59 35 0 35 0 0 -65 c0 -37 4 -65 10 -65 6 0 10 32
10 75 l0 75 -55 0 -55 0 0 -65z"/>
<path d="M2242 374 c-17 -12 -22 -25 -22 -59 0 -34 5 -47 22 -59 47 -33 95
-11 105 48 10 66 -52 107 -105 70z m79 -31 c20 -55 -26 -106 -67 -73 -17 15
-19 71 -2 88 22 22 58 14 69 -15z"/>
<path d="M2380 315 c0 -43 4 -75 10 -75 6 0 10 16 10 35 0 33 2 35 35 35 32 0
35 -2 35 -29 0 -17 5 -33 10 -36 6 -4 10 22 10 70 0 48 -4 74 -10 70 -5 -3
-10 -17 -10 -31 0 -21 -5 -24 -35 -24 -32 0 -35 2 -35 30 0 17 -4 30 -10 30
-6 0 -10 -32 -10 -75z"/>
<path d="M1660 315 c0 -10 11 -15 35 -15 24 0 35 5 35 15 0 10 -11 15 -35 15
-24 0 -35 -5 -35 -15z"/>
</g>
</svg>
